<?xml version="1.0" encoding="UTF-8"?>
<svg id="Layer_1" xmlns="http://www.w3.org/2000/svg" version="1.1" viewBox="0 0 191.43 279.53">
  <!-- Generator: Adobe Illustrator 29.2.1, SVG Export Plug-In . SVG Version: 2.1.0 Build 116)  -->
  <path d="M88.39,15.74c56.59-5.03,93.53,42.13,87.89,96.14-5.99,57.45-43.26,115.04-79.97,157.83-1.59.28-11.97-13.12-13.74-15.35C45.31,207.35-7.9,114.43,26.16,55.52c12.72-22,36.81-37.51,62.23-39.77Z" fill="#ee5261"/>
  <path d="M90.64,38.24c48.03-4.37,80.92,48.99,54.46,89.71-21.58,33.2-68.57,36.11-94.04,5.67-30.03-35.9-6.69-91.17,39.58-95.38Z" fill="#edeeed"/>
  <path d="M108.04,108.52v26.62c0,1.21-3.75,1.81-4.84,1.91-2.55.23-19.16.63-19.16-1.91v-26.62h-26.62c-.67,0-1.69-2.55-1.83-3.42-.37-2.35-.35-17.59.34-19.07.17-.35,1.36-1.51,1.49-1.51h25.5c.62,0,1.12-.51,1.12-1.12v-25.5c0-.13,1.16-1.32,1.51-1.49,1.31-.61,17.79-.76,19.84-.37.82.16,2.64,1.29,2.64,1.86v25.5c0,.62.51,1.12,1.12,1.12h25.5c.13,0,1.32,1.16,1.49,1.51.69,1.48.71,16.72.34,19.07-.14.87-1.16,3.42-1.83,3.42h-26.62Z" fill="#ee5261"/>
</svg>